<?xml version="1.0" encoding="UTF-8"?>
<svg version="1.1" xmlns="http://www.w3.org/2000/svg" width="512" height="512">
<path d="M0 0 C4.75999126 2.05814569 8.12163275 5.74001647 11 10 C11 10.66 11 11.32 11 12 C12.23492187 11.96648438 13.46984375 11.93296875 14.7421875 11.8984375 C32.96989995 11.9197731 51.64066174 16.80046185 69 22 C69.8259668 22.24556641 70.65193359 22.49113281 71.50292969 22.74414062 C101.87870533 32.00966897 134.15610656 48.50413988 157.00317383 70.96972656 C161.31231862 75.24828125 161.31231862 75.24828125 167.03515625 76.5 C168.38184049 76.37199316 169.72535622 76.20491631 171.0625 76 C171.73087891 75.92910156 172.39925781 75.85820313 173.08789062 75.78515625 C176.2973294 75.4295916 179.48551708 74.92835788 182.6796875 74.45703125 C188.65450405 73.63461532 193.86947994 72.93473997 199.375 75.6875 C209.89899684 84.95864007 208.99690131 99.77843416 210 113 C210.24091277 117.21248753 210.44294071 121.42677943 210.57055664 125.64428711 C210.89350325 134.00685626 213.52779205 140.29609279 217.5625 147.5 C247.09684754 202.2027948 252.89046938 270.62062803 235.75 330.125 C230.66562221 347.10957014 224.37548903 363.37284096 216 379 C215.62649414 379.71220703 215.25298828 380.42441406 214.86816406 381.15820312 C206.08156451 397.88273816 195.5088163 412.86371289 183 427 C182.24074219 427.87011719 181.48148437 428.74023438 180.69921875 429.63671875 C171.85865271 439.63927749 162.51410542 448.76969617 152 457 C151.01515625 457.79019531 150.0303125 458.58039063 149.015625 459.39453125 C116.94465895 484.89863335 79.06348851 501.18655233 39 509 C37.75911621 509.24991699 37.75911621 509.24991699 36.49316406 509.50488281 C8.91781494 514.80488028 -23.49800884 514.57960557 -51 509 C-52.01545898 508.80132324 -53.03091797 508.60264648 -54.07714844 508.39794922 C-103.95710769 498.42046261 -147.56598021 474.12696975 -184 439 C-184.86753906 438.17371094 -185.73507813 437.34742188 -186.62890625 436.49609375 C-192.24139894 431.03977477 -197.15318626 425.13874882 -202 419 C-202.76957031 418.05898438 -203.53914063 417.11796875 -204.33203125 416.1484375 C-212.1595082 406.36092998 -218.62634517 395.77492188 -225 385 C-225.58394531 384.02256836 -225.58394531 384.02256836 -226.1796875 383.02539062 C-259.02192404 327.40348251 -264.24594286 257.54287211 -248.46875 195.87109375 C-243.45939701 177.27784674 -236.44216844 159.12787099 -226.77978516 142.43774414 C-222.15932281 134.28467246 -222.63702166 125.14748028 -222.0625 116 C-219.81056938 82.47703657 -219.81056938 82.47703657 -213.53515625 76.63671875 C-206.01896299 71.49033701 -196.21833749 74.08587807 -187.79711914 75.28759766 C-179.99143978 76.74894891 -179.99143978 76.74894891 -172.796875 74.5234375 C-172.12140625 73.81445312 -171.4459375 73.10546875 -170.75 72.375 C-159.047836 61.08250079 -145.21167094 51.84069101 -131 44 C-130.21931152 43.5659082 -129.43862305 43.13181641 -128.63427734 42.68457031 C-97.43187105 25.46571007 -59.25965291 10.72773148 -23 12 C-22.70738281 11.39285156 -22.41476563 10.78570312 -22.11328125 10.16015625 C-17.21252072 0.65096126 -10.14811521 -1.44011714 0 0 Z " fill="#5BB2CD" transform="translate(262,0)"/>
<path d="M0 0 C4.44383314 0.32699904 6.46704946 2.88496742 9.375 6.0625 C11.05887613 8.03540201 12.68593463 10.04071958 14.3125 12.0625 C27.16815472 27.50063724 42.43278371 38.64234199 60.125 48 C60.9718335 48.44859375 61.81866699 48.8971875 62.69116211 49.359375 C91.82562261 64.33231074 126.35417558 67.05992524 158.3125 62.0625 C162.54785679 61.54051375 165.3045312 61.33342783 168.91015625 63.94140625 C172.26640256 68.3017978 172.59180591 72.04707423 173.125 77.4375 C173.24045166 78.54182373 173.35590332 79.64614746 173.47485352 80.78393555 C176.34299351 112.85997344 174.88118679 145.23546578 170.3125 177.0625 C170.08022705 178.72176514 170.08022705 178.72176514 169.84326172 180.41455078 C164.91111712 214.62276965 154.38214516 247.98623693 139.3125 279.0625 C138.82450928 280.08972168 138.82450928 280.08972168 138.32666016 281.13769531 C126.43373169 306.15323162 111.46357742 330.16317937 92.61328125 350.55078125 C90.73477414 352.60151142 88.91526366 354.68181132 87.1015625 356.7890625 C83.05147291 361.43004992 78.74016879 365.78193333 74.375 370.125 C73.61509766 370.88876953 72.85519531 371.65253906 72.07226562 372.43945312 C67.89803199 376.60655741 63.63799058 380.60398948 59.16821289 384.4519043 C56.37697355 386.87445474 53.69541965 389.4095875 51 391.9375 C46.27195232 396.33133773 41.44117639 400.52756278 36.40625 404.5703125 C33.95223824 406.54715531 31.51847222 408.54234033 29.09375 410.5546875 C27.97274902 411.484021 27.97274902 411.484021 26.82910156 412.43212891 C25.35588762 413.65430618 23.88381711 414.87786351 22.41308594 416.10302734 C20.39333267 417.77417215 18.35891989 419.42415199 16.3125 421.0625 C15.67505859 421.58005859 15.03761719 422.09761719 14.38085938 422.63085938 C9.86500589 426.11754072 9.86500589 426.11754072 7.32006836 425.86401367 C5.05337356 424.9590448 3.73194088 423.92381317 1.95703125 422.25390625 C1.33924805 421.67688965 0.72146484 421.09987305 0.08496094 420.50537109 C-0.56182617 419.88484863 -1.20861328 419.26432617 -1.875 418.625 C-2.5462793 417.98900879 -3.21755859 417.35301758 -3.90917969 416.69775391 C-8.31391472 412.48531435 -12.51188735 408.14905889 -16.515625 403.55078125 C-18.55658438 401.21248786 -20.64957774 398.93082804 -22.76367188 396.65869141 C-59.74936915 356.81915946 -87.74764663 307.95731841 -106.52832031 257.15454102 C-107.73424695 253.93780535 -108.99618544 250.74603032 -110.2578125 247.55078125 C-112.62302332 241.41461246 -114.48137537 235.22194689 -116.1875 228.875 C-116.45691406 227.89208984 -116.72632813 226.90917969 -117.00390625 225.89648438 C-117.57779427 223.8024604 -118.14742703 221.70726679 -118.71337891 219.61108398 C-119.42161547 217.03107936 -120.1471162 214.46018371 -120.89208984 211.89086914 C-123.94163633 201.30309328 -126.32798842 190.71019214 -128.3125 179.875 C-128.46157806 179.07301178 -128.61065613 178.27102356 -128.76425171 177.44473267 C-134.27770204 147.74143766 -137.05281611 118.2833843 -136.8125 88.0625 C-136.80242781 85.811202 -136.79330961 83.55989952 -136.78515625 81.30859375 C-136.7635298 75.89312836 -136.73040319 70.47783659 -136.6875 65.0625 C-136.10600693 65.03908035 -135.52451385 65.01566071 -134.92539978 64.99153137 C-120.03374027 64.47681294 -120.03374027 64.47681294 -105.25 62.75 C-104.42838379 62.61883789 -103.60676758 62.48767578 -102.76025391 62.35253906 C-65.52217033 56.10859228 -32.79029694 35.80241009 -8.6875 7.0625 C-8.23246094 6.41796875 -7.77742187 5.7734375 -7.30859375 5.109375 C-5.0846369 1.9679442 -3.75431686 1.08175232 0 0 Z " fill="#82C4EC" transform="translate(255.6875,49.9375)"/>
<path d="M0 0 C4.75999126 2.05814569 8.12163275 5.74001647 11 10 C11 10.66 11 11.32 11 12 C12.23492187 11.96648438 13.46984375 11.93296875 14.7421875 11.8984375 C32.96989995 11.9197731 51.64066174 16.80046185 69 22 C69.8259668 22.24556641 70.65193359 22.49113281 71.50292969 22.74414062 C101.87870533 32.00966897 134.15610656 48.50413988 157.00317383 70.96972656 C161.31231862 75.24828125 161.31231862 75.24828125 167.03515625 76.5 C168.38184049 76.37199316 169.72535622 76.20491631 171.0625 76 C171.73087891 75.92910156 172.39925781 75.85820313 173.08789062 75.78515625 C176.2973294 75.4295916 179.48551708 74.92835788 182.6796875 74.45703125 C188.65450405 73.63461532 193.86947994 72.93473997 199.375 75.6875 C209.93107696 84.98690113 208.94768711 99.76038013 210 113 C210.06606445 113.83031738 210.13212891 114.66063477 210.20019531 115.51611328 C213.97947868 167.00127035 208.1417047 220.20330481 195 270 C194.69666748 271.17163696 194.69666748 271.17163696 194.38720703 272.36694336 C192.22676398 280.53038587 189.65823526 288.55067674 187 296.5625 C186.76211761 297.28010498 186.52423523 297.99770996 186.27914429 298.73706055 C181.58309964 312.82499962 176.10239622 326.45624453 170 340 C169.6380957 340.81339844 169.27619141 341.62679688 168.90332031 342.46484375 C148.32860735 388.5364498 117.1791168 428.80970466 81.75 464.375 C80.91025635 465.2194165 80.0705127 466.06383301 79.20532227 466.93383789 C74.29762976 471.82892295 69.27520456 476.50483109 64 481 C62.97880101 481.88890301 61.95794219 482.77819705 60.9375 483.66796875 C57.65501278 486.48339994 54.34389957 489.25793298 51 492 C50.31679688 492.56106445 49.63359375 493.12212891 48.9296875 493.70019531 C46.8035889 495.42716722 44.65617177 497.12328409 42.5 498.8125 C41.8296875 499.35865967 41.159375 499.90481934 40.46875 500.4675293 C35.75306864 504.09282818 35.75306864 504.09282818 32.46484375 503.6875 C29.12202982 501.39891741 26.08656194 498.87953361 23.0625 496.1875 C21.86620423 495.13895907 20.66959249 494.09077851 19.47265625 493.04296875 C18.89660645 492.53556152 18.32055664 492.0281543 17.72705078 491.50537109 C15.18777202 489.29202746 12.59709024 487.14507759 10 485 C11.54245002 480.71099383 14.79439302 478.56486931 18.3125 475.9375 C19.58753843 474.96172379 20.86093853 473.9838036 22.1328125 473.00390625 C22.77895508 472.50648926 23.42509766 472.00907227 24.09082031 471.49658203 C27.58639977 468.7564411 30.94928526 465.86326689 34.32250977 462.97509766 C37.5827432 460.18766971 40.8915983 457.48199879 44.25 454.8125 C56.62104803 444.68591354 67.87222077 433.23020279 79.20288086 421.97235107 C80.3844714 420.79882669 81.56753605 419.62678435 82.75219727 418.45635986 C89.9847715 411.30161877 96.75888474 404.05239897 103 396 C103.51014648 395.34378662 104.02029297 394.68757324 104.54589844 394.01147461 C116.11010167 378.88407735 126.09103894 362.8136669 135 346 C135.3515918 345.33677734 135.70318359 344.67355469 136.06542969 343.99023438 C138.48741719 339.37802852 140.7825248 334.71375577 143 330 C143.34353516 329.27135742 143.68707031 328.54271484 144.04101562 327.79199219 C161.80921624 289.54326052 170.97946978 248.68303294 176 207 C176.08808929 206.27062225 176.17617859 205.54124451 176.26693726 204.7897644 C177.00603869 198.15424833 177.17661795 191.57924401 177.203125 184.90625 C177.20882507 183.76128052 177.21452515 182.61631104 177.22039795 181.43664551 C177.2298037 179.01620391 177.23636422 176.59574975 177.24023438 174.17529297 C177.24982507 170.56583574 177.28084363 166.95697747 177.3125 163.34765625 C177.36782351 151.37154967 176.99929529 139.56563755 175.671875 127.65625 C175.55515442 126.58499878 175.43843384 125.51374756 175.31817627 124.41003418 C174.54590463 118.19317884 173.72531516 112.16534001 169.5 107.2578125 C164.67079233 103.61075462 161.60370108 102.86131876 155.625 102.875 C154.50351562 102.87242188 153.38203125 102.86984375 152.2265625 102.8671875 C149.15025431 102.89632195 149.15025431 102.89632195 146.80615234 103.49780273 C143.15912773 104.15048497 139.56708256 104.16243703 135.875 104.16796875 C135.09165283 104.17129715 134.30830566 104.17462555 133.5012207 104.17805481 C131.84375594 104.1831063 130.18628105 104.18546369 128.52880859 104.18530273 C126.03595369 104.18746876 123.54355677 104.20558621 121.05078125 104.22460938 C111.84104515 104.25750499 103.07031321 103.78439036 94 102 C93.24557617 101.86456787 92.49115234 101.72913574 91.71386719 101.58959961 C63.56284456 96.34929283 40.04802915 81.2090109 20 61.3125 C19.29375488 60.61189453 18.58750977 59.91128906 17.85986328 59.18945312 C13.97645605 55.2514022 10.52206136 51.23496509 7.34863281 46.7019043 C4.44968867 43.04358793 1.16659588 41.37232826 -3.38671875 40.58984375 C-8.78570192 40.26739299 -12.68968295 41.13755048 -17.1015625 44.28515625 C-19.96517994 46.87183949 -22.16109968 49.86814929 -24.49609375 52.9296875 C-34.08796515 64.691327 -45.35717452 74.65886766 -58 83 C-58.95777344 83.64195313 -59.91554688 84.28390625 -60.90234375 84.9453125 C-74.56119359 93.48927748 -90.28492997 98.78939429 -106 102 C-107.01320312 102.22429687 -108.02640625 102.44859375 -109.0703125 102.6796875 C-119.90361023 104.7445197 -131.02066543 104.18291856 -142 104 C-142.02766303 101.7500736 -142.04668646 99.50004088 -142.0625 97.25 C-142.07410156 95.99703125 -142.08570313 94.7440625 -142.09765625 93.453125 C-142.05714159 87.94835959 -141.50802883 82.47777651 -141 77 C-140.33806641 76.86013672 -139.67613281 76.72027344 -138.99414062 76.57617188 C-116.75233243 71.81553709 -94.9279793 66.24632565 -75 55 C-74.37335449 54.65356445 -73.74670898 54.30712891 -73.10107422 53.95019531 C-53.9515527 43.29044129 -31.9708933 27.32966915 -21 8 C-15.36185542 0.10659759 -9.39669302 -1.33348296 0 0 Z " fill="#83C4EC" transform="translate(262,0)"/>
<path d="M0 0 C3.0417152 2.79730616 4.93107048 5.37614761 6.734375 9.0859375 C7.22212402 10.08761963 7.70987305 11.08930176 8.21240234 12.12133789 C8.71980957 13.19504639 9.2272168 14.26875488 9.75 15.375 C10.54398193 17.05033813 10.54398193 17.05033813 11.35400391 18.75952148 C25.65149821 49.43331624 34.18721832 83.07519945 35 117 C35.02046387 117.66773438 35.04092773 118.33546875 35.06201172 119.0234375 C36.27217737 162.06932991 26.34477899 205.0402945 6 243 C5.62649414 243.71220703 5.25298828 244.42441406 4.86816406 245.15820312 C-3.91843549 261.88273816 -14.4911837 276.86371289 -27 291 C-27.75925781 291.87011719 -28.51851562 292.74023438 -29.30078125 293.63671875 C-38.14134729 303.63927749 -47.48589458 312.76969617 -58 321 C-58.98484375 321.79019531 -59.9696875 322.58039063 -60.984375 323.39453125 C-93.98459237 349.63761079 -139.94752637 373.00089196 -183 374 C-179.40127209 370.12085174 -175.28179396 367.09483301 -171.0625 363.9375 C-163.4808783 358.2036095 -156.17587324 352.23115043 -149 346 C-148.26523437 345.36578125 -147.53046875 344.7315625 -146.7734375 344.078125 C-144.83811406 342.39724648 -142.91816022 340.70043411 -141 339 C-139.91017822 338.03743286 -139.91017822 338.03743286 -138.79833984 337.05541992 C-132.60397288 331.53846339 -126.66369004 325.81567478 -120.8125 319.9375 C-119.96236328 319.09123047 -119.11222656 318.24496094 -118.23632812 317.37304688 C-113.28247476 312.41154277 -108.5299138 307.35081177 -104 302 C-103.45802979 301.36473389 -102.91605957 300.72946777 -102.35766602 300.07495117 C-93.34109087 289.44087329 -84.96581446 278.43958841 -77 267 C-76.56236328 266.37448242 -76.12472656 265.74896484 -75.67382812 265.10449219 C-64.79141128 249.4599569 -55.09181827 232.95562938 -46.86328125 215.76904297 C-46.04482286 214.09185138 -45.17987282 212.43758178 -44.3125 210.78515625 C-19.31444205 163.04580947 -6.31949239 107.51239633 -1.9375 54.0625 C-1.8139917 52.55731812 -1.8139917 52.55731812 -1.68798828 51.02172852 C-0.4302042 34.05409679 -0.31184802 17.0058586 0 0 Z " fill="#FD5D6D" transform="translate(472,136)"/>
<path d="M0 0 C0.33 0 0.66 0 1 0 C1.00410889 1.20382324 1.00821777 2.40764648 1.01245117 3.64794922 C1.20362931 41.24201505 3.67734505 78.24111578 12 115 C12.23380371 116.06089844 12.46760742 117.12179688 12.70849609 118.21484375 C24.16696947 169.51738244 44.73867814 219.88216465 75 263 C75.37688965 263.53995605 75.7537793 264.07991211 76.14208984 264.63623047 C85.73881837 278.35742824 95.93538278 291.43101606 107 304 C108.18722656 305.35738281 108.18722656 305.35738281 109.3984375 306.7421875 C115.90865334 314.01087508 122.80028598 320.90437655 129.6875 327.8125 C130.18504791 328.31272675 130.68259583 328.81295349 131.19522095 329.32833862 C136.94837561 335.10495379 142.76263785 340.74427151 149 346 C149.63349365 346.54019775 150.2669873 347.08039551 150.91967773 347.63696289 C159.81071851 355.17935639 168.92453891 362.2919646 178.46240234 369.00048828 C179.18766113 369.51208496 179.91291992 370.02368164 180.66015625 370.55078125 C181.30605713 371.00106689 181.95195801 371.45135254 182.61743164 371.9152832 C183.0736792 372.27323975 183.52992676 372.63119629 184 373 C184 373.33 184 373.66 184 374 C129.13654569 370.77992645 77.75831881 340.36788585 39 303 C38.13246094 302.17371094 37.26492187 301.34742188 36.37109375 300.49609375 C30.75860106 295.03977477 25.84681374 289.13874882 21 283 C20.23042969 282.05898438 19.46085937 281.11796875 18.66796875 280.1484375 C10.8404918 270.36092998 4.37365483 259.77492188 -2 249 C-2.38929687 248.34837891 -2.77859375 247.69675781 -3.1796875 247.02539062 C-36.02192404 191.40348251 -41.24594286 121.54287211 -25.46875 59.87109375 C-12.78214604 12.78214604 -12.78214604 12.78214604 0 0 Z " fill="#FD5D6D" transform="translate(39,136)"/>
<path d="M0 0 C0.96550781 0.14308594 1.93101563 0.28617187 2.92578125 0.43359375 C5.28467335 0.78392426 7.64264545 1.1394935 10 1.5 C10.01213028 2.34087158 10.01213028 2.34087158 10.02450562 3.19873047 C10.11231048 9.17157194 10.21182704 15.14414574 10.31738281 21.11669922 C10.35506172 23.32921765 10.39000545 25.54178479 10.421875 27.75439453 C10.73575101 49.30394422 12.14942063 70.61309397 15.3125 91.9375 C15.41949219 92.67193329 15.52648437 93.40636658 15.63671875 94.16305542 C18.4231527 113.23194445 21.92888917 132.05333505 27.42236328 150.54345703 C28.3134309 153.56163789 29.15124149 156.59469353 30 159.625 C30.66356892 161.91756556 31.3302322 164.20923776 32 166.5 C32.32097656 167.62277344 32.64195312 168.74554688 32.97265625 169.90234375 C46.62302837 215.74606662 68.50042189 260.09950497 97 298.5 C97.78673096 299.56275146 97.78673096 299.56275146 98.58935547 300.64697266 C106.00279068 310.61246457 113.77600758 320.19398286 122 329.5 C122.73347656 330.33402344 123.46695313 331.16804688 124.22265625 332.02734375 C126.45918223 334.53977761 128.7250065 337.02231891 131 339.5 C131.56122559 340.11697754 132.12245117 340.73395508 132.70068359 341.36962891 C143.01332641 352.85083207 143.01332641 352.85083207 155 362.5 C152.17482163 365.39101939 149.68464422 367.74979399 146 369.5 C132.83019923 367.92294402 115.83626914 348.4620483 106.37890625 339.6953125 C104.26833022 337.74762165 102.12013136 335.86586777 99.9375 334 C95.87897833 330.48428473 92.14106845 326.67540947 88.39453125 322.83203125 C86.03759062 320.45982917 86.03759062 320.45982917 83.39453125 318.421875 C81.25102167 316.70147253 79.61564033 315.04722899 77.875 312.9375 C74.10085636 308.51235778 70.00082349 304.46551 65.84375 300.40625 C62.37523722 296.93588767 59.19310332 293.22236151 56 289.5 C55.4524707 288.86433105 54.90494141 288.22866211 54.34082031 287.57373047 C39.97571725 270.77714651 27.98392663 252.65513936 17 233.5 C16.5982959 232.80261719 16.1965918 232.10523438 15.78271484 231.38671875 C-19.62426252 169.23216113 -40.65073668 75.99733448 -24.03125 4.8984375 C-23 1.5 -23 1.5 -21.375 -0.5 C-14.93834268 -3.2101715 -6.67721027 -1.02230392 0 0 Z " fill="#5AB2CD" transform="translate(109,113.5)"/>
<path d="M0 0 C5.22413642 3.17051038 8.57790938 7.21840462 12.23828125 12.03125 C21.46779917 23.43683312 32.43456539 32.92864319 44.640625 41 C45.61128906 41.64324219 46.58195313 42.28648438 47.58203125 42.94921875 C70.55453977 57.16725254 95.30548067 62.19794872 121.9284668 62.13037109 C124.46474076 62.12497529 127.00084054 62.13036157 129.53710938 62.13671875 C131.16145872 62.13605852 132.78580796 62.13477851 134.41015625 62.1328125 C135.53838554 62.13584885 135.53838554 62.13584885 136.68940735 62.13894653 C140.47586461 62.12209115 143.953581 61.852825 147.640625 61 C161.48152311 60.09921564 161.48152311 60.09921564 166.640625 64 C171.93067289 68.92388008 173.66761086 73.15170434 174.453125 80.25 C174.56076172 81.03246094 174.66839844 81.81492187 174.77929688 82.62109375 C176.1212058 92.71422471 176.80494351 102.76601213 176.87890625 112.9453125 C176.88860947 114.0617514 176.89831268 115.17819031 176.90830994 116.32846069 C176.93315381 119.9273441 176.945829 123.52603947 176.953125 127.125 C176.95574341 128.35420166 176.95836182 129.58340332 176.96105957 130.84985352 C176.96556045 150.58040628 175.9027964 169.53984949 172.640625 189 C172.30130214 191.16654446 171.96273359 193.33320723 171.625 195.5 C170.73775558 201.02258989 169.72589881 206.51321364 168.640625 212 C168.5075293 212.69738281 168.37443359 213.39476562 168.23730469 214.11328125 C163.51334992 238.36690217 154.36190615 262.37381164 144.640625 285 C144.14296631 286.16112305 144.14296631 286.16112305 143.63525391 287.34570312 C131.125495 316.10585241 113.56109949 343.93479053 92.23046875 366.97265625 C91.71848938 367.52611725 91.20651001 368.07957825 90.67901611 368.64981079 C84.85560063 374.90174258 78.83573582 380.95565537 72.78466797 386.98632812 C70.87479506 388.89078505 68.97040351 390.80060819 67.06640625 392.7109375 C61.09367163 398.68726179 55.10765372 404.5539846 48.640625 410 C47.44842092 411.04448295 46.25831937 412.09137057 45.0703125 413.140625 C37.42470247 419.84291091 29.63690102 426.28503472 21.5859375 432.49316406 C19.40815239 434.18007291 17.24275955 435.88218972 15.078125 437.5859375 C13.49486939 438.82822406 11.91153688 440.07041262 10.328125 441.3125 C9.59940186 441.88734131 8.87067871 442.46218262 8.11987305 443.05444336 C5.97792317 444.72806161 3.81597266 446.37007194 1.640625 448 C0.48554443 448.88437744 0.48554443 448.88437744 -0.69287109 449.78662109 C-6.42579606 453.94631921 -6.42579606 453.94631921 -10.484375 454.1796875 C-14.19016719 452.65910429 -17.21776937 450.56151641 -20.359375 448.125 C-21.00801514 447.63467285 -21.65665527 447.1443457 -22.32495117 446.63916016 C-24.3459256 445.10475742 -26.35328787 443.55379674 -28.359375 442 C-29.60540664 441.04679381 -30.85149852 440.09366634 -32.09765625 439.140625 C-38.33482229 434.33488434 -44.34348418 429.36610226 -50.14453125 424.03515625 C-52.12503497 422.21532831 -54.13563777 420.44433669 -56.171875 418.6875 C-65.5054867 410.52058976 -74.45131251 402.00503415 -83.234375 393.25 C-84.42897339 392.06229004 -84.42897339 392.06229004 -85.64770508 390.85058594 C-89.86913579 386.61809162 -93.92792303 382.30491864 -97.82666016 377.7734375 C-99.86200303 375.41843103 -101.98675807 373.15132367 -104.109375 370.875 C-141.72868414 329.5051253 -169.20472785 275.53016698 -181.359375 221 C-181.56755859 220.08234863 -181.77574219 219.16469727 -181.99023438 218.21923828 C-185.12986524 204.24051524 -187.73948558 190.23811036 -189.359375 176 C-189.46378906 175.09846191 -189.56820312 174.19692383 -189.67578125 173.26806641 C-192.65086901 146.16746477 -192.5392002 118.11444215 -190.546875 90.9375 C-190.47694336 89.95974609 -190.40701172 88.98199219 -190.33496094 87.97460938 C-188.94940976 72.37473836 -188.94940976 72.37473836 -184.38671875 66.4296875 C-183.69707031 65.91664062 -183.00742188 65.40359375 -182.296875 64.875 C-181.60464844 64.33617188 -180.91242188 63.79734375 -180.19921875 63.2421875 C-173.0460315 58.41264706 -161.89633378 60.96767872 -153.671875 62 C-127.91314549 65.04743488 -102.15210422 61.61614949 -78.359375 51 C-77.65925293 50.69191406 -76.95913086 50.38382813 -76.23779297 50.06640625 C-60.93056489 43.20785739 -48.35455783 33.61253483 -36.359375 22 C-35.46089844 21.14148438 -34.56242188 20.28296875 -33.63671875 19.3984375 C-29.63747291 15.50173642 -25.9818111 11.6265131 -22.671875 7.125 C-16.99549051 -0.3335052 -9.12651501 -3.86819179 0 0 Z M-21.359375 21 C-46.96659512 51.75127538 -84.01798955 68.79088652 -123.359375 73 C-128.40542663 73.2569474 -133.43271466 73.2810235 -138.484375 73.25 C-139.75152344 73.25773437 -141.01867187 73.26546875 -142.32421875 73.2734375 C-149.32112141 73.25902575 -155.94891066 72.79225476 -162.82397461 71.47143555 C-166.57019863 70.77485793 -169.55452144 70.53273728 -173.359375 71 C-176.8472215 73.68929967 -178.19579511 75.33061388 -179.25 79.64453125 C-179.39227698 81.03173184 -179.51157726 82.42145586 -179.609375 83.8125 C-179.67382812 84.46669922 -179.73828125 85.12089844 -179.8046875 85.79492188 C-180.02793275 88.19480828 -180.19503861 90.59533135 -180.359375 93 C-180.44550049 94.15298584 -180.53162598 95.30597168 -180.62036133 96.49389648 C-181.34070094 106.81406035 -181.5632897 117.09376456 -181.546875 127.4375 C-181.54560608 128.26925751 -181.54433716 129.10101501 -181.54302979 129.95797729 C-181.37411151 188.40718953 -168.39406716 246.17000332 -141.33007812 298.13232422 C-140.36457556 299.9899939 -139.41619235 301.85572404 -138.46875 303.72265625 C-128.20394222 323.70870178 -115.1126124 342.10332471 -100.359375 359 C-99.40224609 360.10794922 -99.40224609 360.10794922 -98.42578125 361.23828125 C-96.74937902 363.17020899 -95.05753147 365.08717815 -93.359375 367 C-92.67488281 367.77730469 -91.99039063 368.55460937 -91.28515625 369.35546875 C-86.57484148 374.65765553 -81.70129439 379.72647145 -76.62109375 384.67578125 C-74.359375 387 -74.359375 387 -72.29296875 389.59375 C-70.55199641 391.76029335 -68.86588447 393.42333578 -66.734375 395.1875 C-63.45172599 397.98812434 -60.38961489 400.92780295 -57.359375 404 C-53.18139767 408.21601658 -48.88711534 412.16640801 -44.359375 416 C-43.39257812 416.83273437 -42.42578125 417.66546875 -41.4296875 418.5234375 C-34.85561337 424.16565841 -28.16304838 429.61204176 -21.2421875 434.82421875 C-19.53125877 436.11552946 -17.83294901 437.42432558 -16.1640625 438.76953125 C-13.01905729 441.30654543 -13.01905729 441.30654543 -9.16015625 441.97265625 C-5.0061756 440.53006046 -1.96719736 437.96621861 1.453125 435.25 C2.57037964 434.37807007 2.57037964 434.37807007 3.71020508 433.48852539 C6.029888 431.67072637 8.33708635 429.83820218 10.640625 428 C11.3428418 427.44103027 12.04505859 426.88206055 12.76855469 426.30615234 C26.31202548 415.49264818 39.4249853 404.26124662 52.09228516 392.43505859 C54.52334112 390.18186608 56.99286133 387.97120971 59.453125 385.75 C64.40111111 381.21653932 69.19894996 376.54857748 73.953125 371.8125 C74.61094971 371.15926758 75.26877441 370.50603516 75.9465332 369.83300781 C96.17073444 349.54492723 112.43994409 325.34189758 125.640625 300 C125.97964844 299.36288086 126.31867188 298.72576172 126.66796875 298.06933594 C160.51177282 234.3652884 172.93014011 157.89450186 165.453125 86.375 C165.35249756 85.35768799 165.25187012 84.34037598 165.14819336 83.29223633 C164.56387374 78.83576772 164.03034449 76.50631849 161.23828125 72.87890625 C156.83583172 69.69457809 152.75550643 70.66928924 147.66796875 71.46484375 C107.74185278 77.63156065 66.24346585 68.88140917 33.0703125 45.55859375 C21.19049886 36.82400514 8.79127467 26.12839896 0.26171875 14.046875 C-1.9622381 10.9054442 -3.29255814 10.01925232 -7.046875 8.9375 C-13.58327212 9.41848017 -17.55600664 16.27250743 -21.359375 21 Z " fill="#3B89B0" transform="translate(263.359375,41)"/>
<path d="M0 0 C19.54732489 -0.53051195 39.38422386 4.42412857 58 10 C58.8259668 10.24556641 59.65193359 10.49113281 60.50292969 10.74414062 C91.17614478 20.10039698 119.44410979 36.55565496 144 57 C144.75458496 57.62680664 145.50916992 58.25361328 146.28662109 58.89941406 C147.02090332 59.52299805 147.75518555 60.14658203 148.51171875 60.7890625 C149.18033936 61.3557666 149.84895996 61.9224707 150.5378418 62.50634766 C152 64 152 64 152 66 C97.03125652 67.11608757 50.24296757 50.41288388 10.3125 12.2578125 C6.66438706 8.71035133 3.03491025 5.09771929 0 1 C0 0.67 0 0.34 0 0 Z " fill="#FC5D6D" transform="translate(273,12)"/>
<path d="M0 0 C-23.33330562 34.36001545 -66.15652935 55.17832609 -105.67236328 63.59106445 C-110.19187102 64.38508328 -114.74120005 64.762659 -119.3125 65.125 C-120.34761719 65.20991699 -121.38273437 65.29483398 -122.44921875 65.38232422 C-132.30845905 66.13110821 -142.11939107 66.19673779 -152 66 C-145.25943078 49.11027827 -114.06199156 34.99452759 -99 27 C-98.17725586 26.56059082 -97.35451172 26.12118164 -96.50683594 25.66845703 C-73.90029229 13.77998993 -49.14229109 6.19520948 -24 2 C-23.23042969 1.87157715 -22.46085938 1.7431543 -21.66796875 1.61083984 C-14.40813209 0.44174453 -7.35045902 -0.25791084 0 0 Z " fill="#FD5D6D" transform="translate(239,12)"/>
<path d="M0 0 C6.33749862 3.70145067 10.17230465 8.59545471 12.58984375 15.51171875 C14.56883914 23.87006397 14.19207781 31.58695566 9.87109375 39.09375 C5.63854976 44.9109421 0.23443592 49.37101274 -6.74609375 51.31640625 C-15.4665906 52.33494197 -22.54619652 51.5549958 -29.74609375 46.31640625 C-35.42742174 41.18280553 -39.25904266 35.79837077 -40.09375 28.1171875 C-40.48041577 18.94626859 -39.1239763 12.15222631 -32.87890625 5.25390625 C-23.40962037 -3.58900664 -11.84701772 -5.4576149 0 0 Z " fill="#BCE8FE" transform="translate(381.74609375,167.68359375)"/>
<path d="M0 0 C5.12967204 2.82517652 8.58752522 6.69928179 10.765625 12.14453125 C11.86134445 17.66527157 10.42787765 22.27903502 7.765625 27.14453125 C3.52899349 32.32263643 -1.03403299 34.73721499 -7.671875 35.58203125 C-13.37191018 34.88202693 -17.54889326 32.83001299 -21.609375 28.76953125 C-24.76608346 23.67023297 -25.85321421 19.12664365 -25.234375 13.14453125 C-23.47837906 7.0751493 -20.10505801 3.43997345 -14.73046875 0.21875 C-9.70389553 -1.94448574 -5.10187925 -1.95334188 0 0 Z " fill="#BBE8FE" transform="translate(344.234375,238.85546875)"/>
</svg>
